<?xml version="1.0" encoding="UTF-8" standalone="no"?><!DOCTYPE svg PUBLIC "-//W3C//DTD SVG 1.1//EN" "http://www.w3.org/Graphics/SVG/1.1/DTD/svg11.dtd"><svg width="100%" height="100%" viewBox="0 0 232 48" version="1.1" xmlns="http://www.w3.org/2000/svg" xmlns:xlink="http://www.w3.org/1999/xlink" xml:space="preserve" xmlns:serif="http://www.serif.com/" style="fill-rule:evenodd;clip-rule:evenodd;stroke-linejoin:round;stroke-miterlimit:2;"><path d="M0,47.765l0,-47.456l4.342,0l0,43.12l23.571,0l0,4.336l-27.913,0Z" style="fill:#6f7070;fill-rule:nonzero;"/><rect x="31.327" y="0.309" width="4.342" height="47.149" style="fill:#6f7070;"/><path d="M54.089,47.89c-1.119,0 -2.297,-0.038 -3.536,-0.124c-1.241,-0.08 -2.43,-0.225 -3.567,-0.434c-1.137,-0.208 -2.152,-0.453 -3.038,-0.747c-0.889,-0.287 -1.539,-0.656 -1.958,-1.115l0.062,0c-0.077,-0.083 -0.192,-0.237 -0.341,-0.464c-0.144,-0.228 -0.306,-0.632 -0.492,-1.211c-0.187,-0.577 -0.372,-1.38 -0.561,-2.419c-0.186,-1.038 -0.339,-2.418 -0.462,-4.155l0,0.06c-0.164,-1.818 -0.283,-3.868 -0.343,-6.141c-0.064,-2.271 -0.096,-4.69 -0.096,-7.255c0,-2.524 0.032,-4.923 0.096,-7.196c0.06,-2.268 0.179,-4.326 0.343,-6.14l0,0.06c0.123,-1.692 0.276,-3.061 0.462,-4.093c0.189,-1.028 0.374,-1.839 0.561,-2.421c0.186,-0.576 0.348,-0.977 0.492,-1.206c0.149,-0.226 0.264,-0.381 0.341,-0.467c0.498,-0.494 1.185,-0.889 2.048,-1.179c0.874,-0.289 1.966,-0.54 3.288,-0.741c1.037,-0.17 2.195,-0.279 3.474,-0.342c1.286,-0.066 2.584,-0.071 3.911,-0.032c1.155,0 2.328,0.036 3.503,0.125c1.177,0.079 2.295,0.217 3.351,0.401c1.055,0.185 1.994,0.425 2.822,0.717c0.826,0.287 1.424,0.64 1.799,1.051c0.373,0.415 0.688,1.045 0.96,1.893c0.268,0.847 0.485,1.767 0.654,2.758c0.163,0.997 0.289,1.974 0.37,2.947c0.081,0.974 0.145,1.768 0.185,2.386l-4.279,0c-0.121,-1.982 -0.276,-3.596 -0.466,-4.837c-0.187,-1.239 -0.383,-1.962 -0.585,-2.169c-0.253,-0.291 -1.152,-0.519 -2.701,-0.683c-1.554,-0.166 -3.444,-0.253 -5.679,-0.253c-2.482,-0.037 -4.618,0.034 -6.416,0.225c-1.799,0.183 -2.867,0.441 -3.199,0.771c-0.081,0.247 -0.143,0.572 -0.186,0.966c-0.044,0.392 -0.089,0.954 -0.155,1.676c-0.062,0.719 -0.132,1.681 -0.217,2.877c-0.16,1.823 -0.275,3.843 -0.341,6.052c-0.059,2.212 -0.093,4.494 -0.093,6.854c0,2.44 0.034,4.766 0.093,6.978c0.066,2.212 0.181,4.232 0.341,6.05c0.085,1.196 0.155,2.162 0.217,2.88c0.066,0.73 0.111,1.275 0.155,1.645c0.043,0.37 0.105,0.707 0.186,0.996c0.332,0.328 1.336,0.599 3.012,0.803c1.67,0.211 3.669,0.309 5.985,0.309c2.355,0 4.362,-0.098 6.018,-0.309c1.654,-0.204 2.642,-0.475 2.98,-0.803c0.328,-0.332 0.585,-1.219 0.775,-2.669c0.183,-1.45 0.276,-3.187 0.276,-5.211c-0.04,-1.984 -0.155,-3.714 -0.34,-5.181c-0.19,-1.469 -0.424,-2.365 -0.711,-2.701c-0.294,-0.16 -0.983,-0.317 -2.082,-0.46c-1.094,-0.143 -2.49,-0.326 -4.187,-0.526l0,-4.346c0.909,0.083 1.835,0.195 2.793,0.342c0.951,0.141 1.858,0.311 2.729,0.496c0.866,0.187 1.643,0.403 2.324,0.656c0.683,0.247 1.188,0.534 1.522,0.864c0.409,0.458 0.767,1.084 1.054,1.895c0.289,0.804 0.524,1.717 0.715,2.726c0.187,1.013 0.319,2.061 0.4,3.136c0.081,1.075 0.124,2.103 0.124,3.099c0,1.035 -0.043,2.11 -0.124,3.225c-0.081,1.12 -0.204,2.171 -0.368,3.163c-0.17,0.996 -0.409,1.892 -0.719,2.703c-0.309,0.803 -0.673,1.412 -1.082,1.825l0.062,0c-0.415,0.459 -1.069,0.828 -1.956,1.115c-0.892,0.294 -1.901,0.539 -3.042,0.747c-1.135,0.209 -2.335,0.354 -3.589,0.434c-1.264,0.086 -2.454,0.124 -3.572,0.124" style="fill:#6f7070;fill-rule:nonzero;"/><path d="M97.507,47.458l-4.343,0l0,-47.149l4.343,0l0,47.149Zm-22.639,-26.736l18.296,0l0,4.34l-18.296,0l0,22.396l-4.342,0l0,-47.151l4.342,0l0,20.415Z" style="fill:#6f7070;fill-rule:nonzero;"/><path d="M118.66,0.001l-18.979,0l0,4.345l14.638,0l0,43.111l4.341,0l0,-32.006l0,-15.45Z" style="fill:#6f7070;fill-rule:nonzero;"/><path d="M121.984,0.001l18.979,0l0,4.345l-14.637,0l0,43.111l-4.342,0l0,-32.006l0,-15.45Z" style="fill:#1aa1b7;fill-rule:nonzero;"/><path d="M158.056,21.963c0.666,0 1.345,0.022 2.048,0.062c0.706,0.041 1.387,0.055 2.047,0.055c0.664,0 1.265,-0.002 1.799,-0.023c0.537,-0.021 0.973,-0.094 1.303,-0.219c0.66,-0.703 1.19,-1.863 1.579,-3.476c0.4,-1.61 0.611,-3.387 0.656,-5.332c0,-1.944 -0.098,-3.602 -0.281,-4.96c-0.188,-1.371 -0.445,-2.214 -0.779,-2.544c-0.324,-0.334 -1.322,-0.602 -2.972,-0.809c-1.654,-0.206 -3.661,-0.31 -6.015,-0.31c-2.321,0 -4.313,0.104 -5.992,0.31c-1.674,0.207 -2.676,0.475 -3.004,0.809c-0.089,0.33 -0.143,0.701 -0.187,1.115c-0.043,0.416 -0.107,0.99 -0.187,1.737c-0.083,0.743 -0.167,1.695 -0.252,2.853c-0.119,1.447 -0.213,3.101 -0.277,4.962c-0.059,1.86 -0.091,3.782 -0.091,5.77l10.605,0Zm-14.949,25.495l0,-23.015c0,-2.48 0.034,-4.887 0.097,-7.228c0.062,-2.333 0.154,-4.434 0.277,-6.293c0.124,-1.737 0.283,-3.133 0.466,-4.187c0.183,-1.056 0.369,-1.894 0.556,-2.512c0.185,-0.621 0.362,-1.055 0.532,-1.306c0.16,-0.245 0.287,-0.407 0.37,-0.496c0.411,-0.411 1.061,-0.777 1.95,-1.086c0.892,-0.309 1.897,-0.556 3.014,-0.741c1.112,-0.189 2.295,-0.323 3.532,-0.407c1.241,-0.078 2.422,-0.119 3.54,-0.119c1.113,0 2.301,0.041 3.563,0.119c1.258,0.084 2.463,0.23 3.595,0.439c1.137,0.204 2.154,0.46 3.042,0.771c0.888,0.317 1.539,0.672 1.952,1.087l-0.055,0c0.413,0.456 0.772,1.073 1.079,1.861c0.313,0.785 0.545,1.65 0.715,2.603c0.166,0.952 0.29,1.969 0.371,3.042c0.083,1.077 0.131,2.107 0.131,3.099c0,0.83 -0.061,1.733 -0.159,2.703c-0.104,0.971 -0.271,1.942 -0.498,2.91c-0.226,0.973 -0.518,1.916 -0.867,2.825c-0.355,0.911 -0.772,1.737 -1.273,2.482c0.126,0.081 0.269,0.206 0.433,0.368l-0.06,0c0.413,0.46 0.775,1.088 1.086,1.891c0.31,0.808 0.547,1.72 0.711,2.737c0.166,1.013 0.291,2.078 0.376,3.191c0.081,1.117 0.12,2.171 0.12,3.165l0,12.097l-4.341,0l0,-12.097c0,-1.984 -0.093,-3.721 -0.277,-5.211c-0.189,-1.486 -0.449,-2.399 -0.776,-2.729c-0.288,-0.289 -1.203,-0.54 -2.729,-0.749c-1.529,-0.2 -3.368,-0.326 -5.524,-0.368l-10.605,0l0,21.154l-4.344,0Z" style="fill:#1aa1b7;fill-rule:nonzero;"/><path d="M180.017,20.722l18.915,0l0,4.34l-18.915,0l0,-4.34Zm9.24,27.168c-1.113,0 -2.301,-0.038 -3.566,-0.124c-1.258,-0.08 -2.462,-0.225 -3.599,-0.434c-1.139,-0.208 -2.15,-0.453 -3.036,-0.747c-0.891,-0.287 -1.541,-0.656 -1.956,-1.115l0.062,0c-0.081,-0.083 -0.208,-0.237 -0.372,-0.464c-0.166,-0.228 -0.341,-0.632 -0.526,-1.211c-0.188,-0.577 -0.371,-1.38 -0.558,-2.419c-0.187,-1.038 -0.338,-2.418 -0.466,-4.155c-0.123,-1.783 -0.228,-3.808 -0.309,-6.081c-0.085,-2.271 -0.125,-4.651 -0.125,-7.131c0,-2.525 0.029,-4.919 0.091,-7.199c0.064,-2.274 0.179,-4.319 0.343,-6.139l0,0.062c0.128,-1.693 0.266,-3.059 0.436,-4.092c0.164,-1.034 0.33,-1.841 0.498,-2.418c0.16,-0.579 0.317,-0.973 0.462,-1.181c0.145,-0.205 0.256,-0.353 0.339,-0.436c0.496,-0.492 1.175,-0.905 2.052,-1.235c0.862,-0.336 1.833,-0.6 2.91,-0.811c1.075,-0.202 2.226,-0.345 3.444,-0.432c1.217,-0.085 2.392,-0.128 3.504,-0.128c1.115,0 2.277,0.053 3.475,0.16c1.195,0.104 2.355,0.245 3.472,0.434c1.116,0.185 2.161,0.421 3.134,0.711c0.97,0.289 1.786,0.643 2.45,1.06l0,6.509c-0.622,-0.66 -1.407,-1.273 -2.353,-1.83c-0.959,-0.56 -1.981,-1.048 -3.077,-1.463c-1.097,-0.406 -2.252,-0.717 -3.468,-0.926c-1.224,-0.206 -2.433,-0.31 -3.633,-0.31c-2.314,0 -4.247,0.104 -5.797,0.31c-1.554,0.209 -2.495,0.475 -2.824,0.805c-0.037,0.045 -0.084,0.121 -0.124,0.247c-0.042,0.126 -0.096,0.396 -0.155,0.809c-0.062,0.415 -0.122,0.981 -0.186,1.707c-0.065,0.722 -0.136,1.684 -0.217,2.88c-0.161,1.78 -0.279,3.78 -0.34,5.99c-0.062,2.21 -0.094,4.515 -0.094,6.916c0,2.441 0.041,4.759 0.126,6.948c0.081,2.19 0.181,4.174 0.308,5.956c0.081,1.117 0.164,2.039 0.249,2.758c0.079,0.726 0.154,1.286 0.213,1.675c0.066,0.392 0.117,0.677 0.154,0.841c0.044,0.164 0.085,0.247 0.129,0.247c0.328,0.328 1.312,0.599 2.948,0.803c1.631,0.211 3.626,0.309 5.982,0.309c1.156,0 2.327,-0.098 3.502,-0.309c1.179,-0.204 2.309,-0.511 3.382,-0.93c1.075,-0.411 2.067,-0.888 2.98,-1.422c0.911,-0.547 1.673,-1.161 2.295,-1.861l0,6.446c-0.703,0.459 -1.548,0.828 -2.542,1.115c-0.998,0.294 -2.037,0.539 -3.135,0.747c-1.097,0.209 -2.203,0.354 -3.319,0.434c-1.115,0.086 -2.165,0.124 -3.163,0.124" style="fill:#1aa1b7;fill-rule:nonzero;"/><path d="M210.162,20.722l18.919,0l0,4.34l-18.919,0l0,-4.34Zm9.241,27.168c-1.118,0 -2.304,-0.038 -3.564,-0.124c-1.262,-0.08 -2.46,-0.225 -3.597,-0.434c-1.137,-0.208 -2.156,-0.453 -3.044,-0.747c-0.89,-0.287 -1.541,-0.656 -1.952,-1.115l0.06,0c-0.081,-0.083 -0.207,-0.237 -0.369,-0.464c-0.168,-0.228 -0.345,-0.632 -0.528,-1.211c-0.185,-0.577 -0.374,-1.38 -0.557,-2.419c-0.19,-1.038 -0.339,-2.418 -0.466,-4.155c-0.126,-1.783 -0.228,-3.808 -0.311,-6.081c-0.081,-2.271 -0.122,-4.651 -0.122,-7.131c0,-2.525 0.026,-4.919 0.09,-7.199c0.064,-2.274 0.177,-4.319 0.343,-6.139l0,0.062c0.127,-1.693 0.266,-3.059 0.436,-4.092c0.166,-1.034 0.33,-1.841 0.496,-2.418c0.164,-0.579 0.317,-0.973 0.466,-1.181c0.143,-0.205 0.256,-0.353 0.337,-0.436c0.495,-0.492 1.179,-0.905 2.047,-1.235c0.871,-0.336 1.842,-0.6 2.919,-0.811c1.074,-0.202 2.22,-0.345 3.437,-0.432c1.22,-0.085 2.391,-0.128 3.51,-0.128c1.114,0 2.274,0.053 3.474,0.16c1.194,0.104 2.355,0.245 3.47,0.434c1.117,0.185 2.16,0.421 3.131,0.711c0.973,0.289 1.792,0.643 2.45,1.06l0,6.509c-0.619,-0.66 -1.403,-1.273 -2.352,-1.83c-0.953,-0.56 -1.979,-1.048 -3.074,-1.463c-1.098,-0.406 -2.258,-0.717 -3.471,-0.926c-1.229,-0.206 -2.433,-0.31 -3.628,-0.31c-2.32,0 -4.257,0.104 -5.798,0.31c-1.558,0.209 -2.497,0.475 -2.823,0.805c-0.046,0.045 -0.089,0.121 -0.127,0.247c-0.039,0.126 -0.096,0.396 -0.154,0.809c-0.063,0.415 -0.125,0.981 -0.187,1.707c-0.064,0.722 -0.136,1.684 -0.217,2.88c-0.164,1.78 -0.281,3.78 -0.343,5.99c-0.059,2.21 -0.091,4.515 -0.091,6.916c0,2.441 0.042,4.759 0.123,6.948c0.081,2.19 0.188,4.174 0.311,5.956c0.081,1.117 0.164,2.039 0.249,2.758c0.081,0.726 0.155,1.286 0.213,1.675c0.064,0.392 0.111,0.677 0.155,0.841c0.045,0.164 0.085,0.247 0.13,0.247c0.328,0.328 1.311,0.599 2.938,0.803c1.639,0.211 3.635,0.309 5.99,0.309c1.156,0 2.33,-0.098 3.506,-0.309c1.174,-0.204 2.305,-0.511 3.378,-0.93c1.077,-0.411 2.067,-0.888 2.978,-1.422c0.909,-0.547 1.675,-1.161 2.294,-1.861l0,6.446c-0.704,0.459 -1.547,0.828 -2.537,1.115c-1,0.294 -2.037,0.539 -3.138,0.747c-1.094,0.209 -2.201,0.354 -3.318,0.434c-1.118,0.086 -2.169,0.124 -3.163,0.124" style="fill:#1aa1b7;fill-rule:nonzero;"/></svg>