<?xml version="1.0" encoding="UTF-8"?>
<svg width="760px" height="513px" viewBox="0 0 760 513" version="1.1" xmlns="http://www.w3.org/2000/svg" xmlns:xlink="http://www.w3.org/1999/xlink">
    <!-- Generator: Sketch 52.4 (67378) - http://www.bohemiancoding.com/sketch -->
    <title>Yellow Figure</title>
    <desc>Created with Sketch.</desc>
    <g id="Final" stroke="none" stroke-width="1" fill="none" fill-rule="evenodd">
        <path d="M689.151367,45.0991801 L689.660309,44.9364391 C736.89459,68.7660642 767.746939,115.647318 770.595572,167.920484 C773.444205,220.193651 747.856349,269.917194 703.4707,298.360734 C659.085052,326.804275 602.644847,329.646563 555.410567,305.816936 L555.073008,305.646638 L555.410567,305.816936 C555.410567,305.816936 451.348142,250.381086 381.627352,281.068742 C324.244089,306.234628 285.142161,372.855098 272.864076,396.025908 C271.944829,398.638492 270.488076,401.469323 269.088451,404.189141 C232.08815,476.087932 143.061227,504.630638 70.1288132,467.977108 C-2.80360003,431.323578 -32.087439,343.321614 4.68454349,271.308078 C41.456526,199.294541 130.391775,170.47634 203.439305,206.904428 C203.439305,206.904428 296.049025,252.64706 370.040211,234.042009 C431.002336,218.722094 472.669002,143.537251 485.444819,117.471287 C486.791655,114.165502 488.134153,111.556697 489.648033,108.614853 C526.877932,36.6477413 616.143875,8.22823417 689.151367,45.0991801 Z" id="Yellow-Figure" fill="#FDCD39" transform="translate(379.810821, 256.455163) scale(1, -1) rotate(533.000000) translate(-379.810821, -256.455163) "></path>
    </g>
</svg>